<?xml version="1.0" standalone="no"?>
<!DOCTYPE svg PUBLIC "-//W3C//DTD SVG 20010904//EN"
 "http://www.w3.org/TR/2001/REC-SVG-20010904/DTD/svg10.dtd">
<svg version="1.0" xmlns="http://www.w3.org/2000/svg"
 width="512.000000pt" height="512.000000pt" viewBox="0 0 512.000000 512.000000"
 preserveAspectRatio="xMidYMid meet">

<g transform="translate(0.000000,512.000000) scale(0.100000,-0.100000)"
fill="#000000" stroke="none">
<path d="M1610 5109 c-83 -26 -158 -108 -228 -250 -81 -167 -174 -482 -241
-813 -17 -82 -31 -149 -33 -151 -2 -1 -47 -23 -101 -49 -68 -32 -116 -64 -153
-100 -51 -49 -54 -55 -54 -102 0 -54 24 -103 63 -129 13 -8 54 -18 89 -22 l66
-6 4 -77 c4 -61 10 -87 32 -124 31 -53 91 -101 148 -118 l38 -11 0 -101 c0
-120 18 -209 58 -297 51 -112 109 -178 274 -311 l153 -123 -120 -7 c-78 -4
-143 -14 -186 -27 -172 -54 -316 -211 -351 -382 l-12 -58 -55 -11 c-155 -30
-261 -75 -370 -155 -211 -155 -339 -390 -358 -655 -5 -74 -3 -88 13 -107 30
-36 78 -40 107 -11 20 20 25 37 30 106 16 204 90 359 238 496 96 89 219 151
346 173 l92 16 108 -101 c59 -55 144 -137 188 -181 l79 -81 -23 -62 c-13 -35
-35 -95 -48 -134 l-25 -71 19 -44 c18 -41 53 -69 397 -320 l376 -274 0 -142 0
-143 -595 0 -595 0 0 320 c0 307 -1 321 -20 340 -30 30 -83 27 -109 -6 -20
-26 -21 -38 -21 -340 l0 -314 -193 0 c-137 0 -196 3 -205 12 -9 9 -12 77 -12
245 l0 234 -25 24 c-31 32 -69 32 -101 0 l-25 -25 3 -258 3 -259 27 -40 c16
-24 44 -49 70 -62 l44 -21 1825 0 c1760 0 1825 1 1865 19 23 10 54 36 70 57
l29 37 5 255 5 255 65 22 c217 73 386 223 484 428 63 132 80 207 80 357 0 150
-17 225 -79 356 -104 216 -285 369 -520 440 -122 36 -308 39 -430 5 -144 -39
-251 -99 -358 -200 -31 -30 -59 -52 -61 -50 -1 2 -18 32 -36 66 -36 69 -120
155 -192 197 -86 50 -154 68 -286 75 l-124 6 112 90 c62 50 134 114 161 143
124 135 198 313 207 494 l5 106 43 12 c56 16 126 77 152 133 11 24 24 76 28
115 l7 72 36 0 c89 0 163 51 176 123 16 85 -58 164 -227 242 l-87 40 -28 145
c-30 159 -47 190 -101 190 -33 0 -72 -36 -72 -67 0 -11 9 -65 20 -118 11 -53
20 -99 20 -100 0 -2 -24 3 -52 11 -205 54 -471 84 -813 91 -391 8 -667 -15
-963 -78 -52 -11 -96 -18 -99 -15 -15 14 85 432 148 621 54 162 129 314 180
359 51 47 77 47 307 0 155 -31 195 -35 322 -35 143 0 194 6 400 50 174 38 210
28 278 -73 49 -72 79 -138 131 -289 53 -151 49 -144 80 -155 39 -14 88 9 97
44 16 64 -129 423 -215 531 -22 29 -62 65 -88 80 -44 26 -56 28 -148 28 -72
-1 -133 -9 -220 -29 -227 -52 -399 -52 -625 -1 -129 30 -267 40 -320 24z
m1140 -1233 c334 -42 654 -133 750 -214 l25 -21 -1277 -1 c-703 0 -1278 3
-1278 8 0 4 24 21 53 38 161 96 479 171 852 204 162 14 719 5 875 -14z m-1510
-476 l0 -90 -23 15 c-33 21 -47 57 -47 115 l0 50 35 0 35 0 0 -90z m1850 -148
c0 -205 -3 -250 -20 -316 -23 -90 -62 -168 -124 -248 -48 -60 -461 -399 -509
-417 -44 -17 -366 -14 -399 3 -15 8 -138 103 -272 211 -262 210 -298 249 -348
373 -21 54 -23 72 -26 345 l-3 287 850 0 851 0 0 -238z m227 181 c-6 -59 -32
-106 -61 -111 -14 -3 -16 8 -16 82 l0 86 41 0 42 0 -6 -57z m-1387 -1268 c28
-19 68 -39 88 -45 20 -5 121 -10 224 -10 207 0 250 8 323 62 l40 29 6 -78 c8
-116 40 -194 103 -252 33 -31 32 -41 -7 -121 -32 -63 -33 -64 -98 -86 -191
-63 -466 -72 -661 -21 -141 37 -145 40 -181 125 l-30 73 41 42 c60 61 85 125
90 230 2 48 6 87 7 87 2 0 26 -16 55 -35z m-210 -45 c0 -68 -20 -111 -68 -150
-50 -39 -76 -91 -69 -134 3 -17 111 -278 241 -579 130 -301 236 -550 236 -552
0 -5 -488 350 -509 370 -12 11 -7 31 33 129 49 124 54 152 32 194 -8 15 -104
116 -215 225 l-201 198 10 45 c24 108 103 210 200 259 66 33 113 43 223 44
l87 1 0 -50z m1275 35 c141 -37 259 -163 280 -300 l7 -40 -197 -189 c-108
-104 -204 -200 -212 -212 -26 -41 -18 -101 30 -220 l44 -112 -211 -153 c-309
-225 -320 -233 -314 -223 3 5 112 257 242 561 141 329 236 564 236 583 0 43
-14 67 -70 120 -50 47 -70 93 -70 163 l0 37 88 0 c48 0 115 -7 147 -15z m1145
-59 c148 -27 269 -94 376 -209 73 -78 113 -145 150 -252 25 -71 28 -94 28
-205 -1 -108 -4 -136 -27 -205 -73 -217 -238 -379 -457 -447 -62 -19 -97 -23
-195 -22 -104 0 -131 4 -204 29 -219 75 -386 252 -447 475 -24 87 -24 252 0
340 48 176 183 346 341 427 146 75 280 97 435 69z m-943 -689 c2 -168 48 -309
146 -450 l41 -58 -56 -55 -55 -56 -34 21 c-37 23 -92 27 -136 10 -42 -16 -469
-445 -494 -497 -25 -51 -21 -101 11 -144 l21 -28 -161 0 -161 0 3 146 3 147
365 266 c217 159 374 281 387 301 13 18 23 46 23 62 0 16 -21 84 -47 150 l-47
121 93 89 c51 48 94 88 95 88 0 0 2 -51 3 -113z m-1162 67 c123 -20 385 -14
484 10 35 9 68 15 72 14 4 -2 -73 -190 -171 -418 l-179 -415 -15 35 c-8 19
-85 199 -171 400 -87 201 -160 374 -163 384 -4 16 -1 18 19 12 13 -3 69 -13
124 -22z m1465 -1004 l0 -320 -217 0 -218 0 161 163 c89 89 169 173 178 187
23 35 21 107 -5 149 l-20 34 52 53 c30 30 57 54 61 54 4 0 8 -144 8 -320z
m326 155 c32 -8 98 -18 147 -22 l87 -6 -2 -221 -3 -221 -202 -3 -203 -2 0 269
0 269 58 -24 c32 -13 85 -30 118 -39z m-756 -260 c-113 -113 -210 -205 -215
-205 -6 0 -33 23 -60 50 l-50 50 210 210 210 210 55 -55 55 -55 -205 -205z"/>
<path d="M3930 1983 c-60 -10 -153 -47 -207 -82 -170 -112 -258 -274 -258
-476 1 -157 51 -278 162 -390 135 -137 335 -194 522 -150 355 84 535 483 364
808 -108 205 -355 328 -583 290z m194 -158 c79 -21 135 -56 200 -125 200 -217
100 -574 -186 -661 -141 -43 -284 -10 -392 91 -134 126 -172 306 -97 466 86
184 283 279 475 229z"/>
</g>
</svg>
