<?xml version="1.0" standalone="no"?>
<!DOCTYPE svg PUBLIC "-//W3C//DTD SVG 20010904//EN"
 "http://www.w3.org/TR/2001/REC-SVG-20010904/DTD/svg10.dtd">
<svg version="1.0" xmlns="http://www.w3.org/2000/svg"
 width="512.000000pt" height="512.000000pt" viewBox="0 0 512.000000 512.000000"
 preserveAspectRatio="xMidYMid meet">

<g transform="translate(0.000000,512.000000) scale(0.100000,-0.100000)"
fill="#000000" stroke="none">
<path d="M2465 5099 c-27 -12 -87 -47 -132 -79 -146 -104 -147 -105 -290 -59
-245 79 -317 57 -467 -140 -103 -137 -95 -133 -283 -141 -177 -8 -214 -19
-271 -85 -42 -47 -62 -89 -102 -210 -21 -62 -43 -110 -59 -126 -16 -16 -64
-38 -126 -59 -121 -40 -163 -60 -211 -103 -63 -54 -77 -100 -84 -275 -8 -182
-5 -175 -141 -278 -197 -150 -219 -222 -140 -467 46 -143 45 -144 -59 -290
-131 -184 -131 -270 0 -454 33 -45 66 -96 75 -114 17 -31 17 -31 73 -25 31 4
66 9 79 12 l22 6 -18 47 c-10 27 -51 96 -92 155 -99 143 -99 148 3 298 43 62
85 133 94 158 21 60 13 138 -27 265 -37 116 -40 166 -13 197 11 11 63 54 116
94 158 120 177 157 184 364 3 74 10 148 16 163 13 33 45 50 190 101 166 59
205 98 264 264 51 145 68 177 101 190 15 6 89 13 163 16 207 7 244 26 364 184
40 53 83 105 94 116 31 27 81 24 197 -13 199 -62 243 -56 419 63 156 106 157
106 308 4 62 -43 133 -85 158 -94 60 -21 138 -13 265 27 116 37 166 40 196 13
12 -11 57 -65 100 -120 120 -157 152 -173 359 -180 74 -3 148 -10 163 -16 33
-13 50 -45 101 -190 59 -166 98 -205 264 -264 145 -51 177 -68 190 -101 6 -15
13 -89 16 -163 7 -207 26 -244 184 -364 53 -40 105 -83 116 -94 27 -31 24 -81
-13 -197 -40 -127 -48 -205 -27 -265 9 -25 51 -96 94 -158 102 -150 102 -154
0 -304 -43 -62 -84 -132 -92 -155 -17 -48 -18 -47 86 -59 56 -6 56 -6 73 25 9
18 42 69 75 114 131 184 131 270 0 454 -104 146 -105 147 -59 290 79 245 57
317 -140 467 -136 103 -133 96 -141 278 -7 175 -21 221 -84 275 -48 43 -90 63
-211 103 -62 21 -110 43 -126 59 -16 16 -38 64 -59 126 -40 121 -60 163 -103
211 -54 63 -100 77 -275 84 -182 8 -175 5 -278 141 -150 197 -222 219 -467
140 -143 -46 -144 -45 -290 59 -139 99 -221 119 -322 79z"/>
<path d="M2390 4554 c-514 -63 -902 -246 -1240 -584 -303 -302 -495 -676 -565
-1100 -20 -117 -29 -368 -18 -475 l8 -80 45 2 c25 2 60 5 78 8 l32 6 -6 132
c-11 233 23 471 98 692 182 535 608 961 1143 1143 387 132 803 132 1190 0 774
-263 1280 -1012 1241 -1835 l-6 -132 32 -6 c18 -3 53 -6 78 -8 l45 -2 8 80
c11 107 2 358 -18 475 -70 424 -262 798 -565 1100 -302 303 -674 494 -1100
565 -91 16 -407 28 -480 19z"/>
<path d="M1600 3360 l0 -80 40 0 40 0 0 -400 0 -400 80 0 80 0 0 446 c0 319
-3 451 -12 467 -21 40 -40 46 -135 47 l-93 0 0 -80z"/>
<path d="M2130 3431 c-86 -28 -141 -74 -181 -151 -24 -44 -24 -50 -24 -320 0
-270 0 -276 24 -320 32 -62 67 -97 126 -128 41 -22 63 -26 125 -26 116 0 196
49 251 154 24 44 24 50 24 320 l0 275 -27 50 c-31 60 -67 95 -128 125 -48 24
-147 35 -190 21z m138 -177 c48 -31 53 -67 50 -309 -3 -209 -4 -225 -24 -252
-11 -15 -39 -34 -61 -42 -36 -13 -43 -12 -79 5 -68 33 -74 57 -74 304 0 185 2
220 18 250 32 64 108 84 170 44z"/>
<path d="M2770 3431 c-86 -28 -141 -74 -181 -151 -24 -44 -24 -50 -24 -320 0
-270 0 -276 24 -320 32 -62 67 -97 126 -128 41 -22 63 -26 125 -26 116 0 196
49 251 154 24 44 24 50 24 320 l0 275 -27 50 c-31 60 -67 95 -128 125 -48 24
-147 35 -190 21z m138 -177 c48 -31 53 -67 50 -309 -3 -209 -4 -225 -24 -252
-11 -15 -39 -34 -61 -42 -36 -13 -43 -12 -79 5 -68 33 -74 57 -74 304 0 185 2
220 18 250 32 64 108 84 170 44z"/>
<path d="M3527 2915 c-86 -173 -157 -316 -157 -318 0 -6 140 -71 144 -66 9 9
317 631 314 634 -8 7 -128 65 -135 65 -5 0 -79 -142 -166 -315z"/>
<path d="M3280 3040 l0 -80 80 0 80 0 0 80 0 80 -80 0 -80 0 0 -80z"/>
<path d="M3760 2720 l0 -80 80 0 80 0 0 80 0 80 -80 0 -80 0 0 -80z"/>
<path d="M305 2136 c-60 -28 -97 -66 -124 -126 -19 -42 -21 -65 -21 -330 0
-265 2 -288 21 -330 11 -25 32 -58 47 -74 38 -40 118 -76 172 -76 54 0 134 36
172 76 53 57 68 108 68 235 0 112 -1 117 -26 143 -25 24 -33 26 -120 26 l-94
0 0 -80 0 -80 40 0 40 0 0 -54 c0 -44 -4 -58 -26 -80 -29 -28 -50 -32 -87 -15
-43 20 -47 45 -47 309 0 264 4 289 47 309 37 17 58 13 87 -15 22 -22 26 -36
26 -80 l0 -54 80 0 80 0 0 63 c0 185 -176 308 -335 233z"/>
<path d="M720 1778 c0 -364 1 -385 21 -428 11 -25 32 -58 47 -74 38 -40 118
-76 172 -76 54 0 134 36 172 76 15 16 36 49 47 74 20 43 21 64 21 428 l0 382
-80 0 -80 0 0 -374 0 -373 -26 -27 c-15 -14 -35 -26 -45 -26 -31 0 -66 21 -78
47 -7 16 -11 143 -11 388 l0 365 -80 0 -80 0 0 -382z"/>
<path d="M1425 2136 c-60 -28 -97 -66 -124 -126 -20 -43 -21 -64 -21 -427 l0
-383 80 0 80 0 0 80 0 80 80 0 80 0 0 -80 0 -80 80 0 80 0 0 383 c0 381 0 382
-24 432 -59 125 -193 177 -311 121z m136 -149 c35 -27 39 -53 39 -261 l0 -206
-80 0 -80 0 0 213 c1 151 4 217 13 228 28 37 78 49 108 26z"/>
<path d="M1867 2135 l-27 -28 0 -453 0 -454 80 0 80 0 0 126 0 126 91 -113
c50 -63 101 -119 112 -126 12 -7 43 -12 70 -13 l47 0 0 80 c0 76 -1 80 -22 80
-17 1 -47 31 -113 115 -49 63 -91 118 -93 123 -1 5 10 12 25 15 79 16 170 110
194 202 22 81 -7 191 -70 258 -14 16 -48 41 -76 55 -43 22 -65 27 -160 30
-109 4 -111 4 -138 -23z m239 -160 c14 -9 33 -33 41 -53 30 -72 -20 -148 -105
-159 l-42 -6 0 123 0 123 40 -6 c23 -3 52 -13 66 -22z"/>
<path d="M2545 2136 c-60 -28 -97 -66 -124 -126 -20 -43 -21 -64 -21 -427 l0
-383 80 0 80 0 0 80 0 80 80 0 80 0 0 -80 0 -80 80 0 80 0 0 383 c0 381 0 382
-24 432 -59 125 -193 177 -311 121z m136 -149 c35 -27 39 -53 39 -261 l0 -206
-80 0 -80 0 0 213 c1 151 4 217 13 228 28 37 78 49 108 26z"/>
<path d="M3003 2150 c-12 -5 -26 -18 -32 -29 -7 -13 -11 -171 -11 -470 l0
-451 80 0 80 0 2 227 3 227 85 -213 c92 -233 103 -248 165 -237 67 13 65 1 65
503 l0 453 -80 0 -80 0 -2 -227 -3 -226 -69 174 c-93 234 -103 254 -132 268
-29 13 -41 13 -71 1z"/>
<path d="M3520 2080 l0 -80 80 0 80 0 0 -400 0 -400 80 0 80 0 0 400 0 400 80
0 80 0 0 80 0 80 -240 0 -240 0 0 -80z"/>
<path d="M4106 2134 l-26 -27 0 -427 0 -427 26 -27 27 -26 173 0 174 0 0 80 0
80 -120 0 -120 0 0 120 0 120 120 0 120 0 0 80 0 80 -120 0 -120 0 0 120 0
120 120 0 120 0 0 80 0 80 -174 0 -173 0 -27 -26z"/>
<path d="M4586 2134 l-26 -27 0 -427 0 -427 26 -27 27 -26 173 0 174 0 0 80 0
80 -120 0 -120 0 0 120 0 120 120 0 120 0 0 80 0 80 -120 0 -120 0 0 120 0
120 120 0 120 0 0 80 0 80 -174 0 -173 0 -27 -26z"/>
<path d="M552 1102 c-60 -44 -61 -46 -44 -65 34 -39 106 -77 216 -113 71 -24
120 -47 137 -63 16 -16 38 -64 59 -126 40 -121 60 -163 103 -211 54 -63 100
-77 275 -84 182 -8 175 -5 278 -141 150 -197 222 -219 467 -140 143 46 144 45
290 -59 184 -131 270 -131 454 0 146 104 147 105 290 59 245 -79 317 -57 467
140 103 136 96 133 278 141 175 7 221 21 275 84 43 48 63 90 103 211 21 62 43
110 59 126 17 16 66 39 137 63 110 36 182 74 216 113 17 19 16 21 -45 65 -58
41 -65 44 -84 31 -12 -8 -80 -36 -151 -62 -185 -68 -218 -100 -278 -269 -51
-145 -68 -177 -101 -190 -15 -6 -89 -13 -163 -16 -207 -7 -244 -26 -364 -184
-40 -53 -83 -105 -94 -116 -31 -27 -81 -24 -197 13 -127 40 -205 48 -265 27
-25 -9 -96 -51 -158 -94 -150 -102 -154 -102 -304 0 -62 43 -133 85 -158 94
-60 21 -138 13 -265 -27 -116 -37 -166 -40 -197 -13 -11 11 -54 63 -94 116
-120 158 -157 177 -364 184 -74 3 -148 10 -163 16 -33 13 -50 45 -101 190 -60
169 -93 201 -278 269 -71 26 -139 54 -151 62 -21 14 -27 12 -85 -31z"/>
<path d="M1386 1038 l-46 -61 61 -44 c366 -266 852 -402 1303 -365 79 6 192
21 250 32 261 51 550 176 765 333 l61 44 -46 61 c-25 34 -47 62 -49 62 -2 0
-47 -29 -100 -65 -616 -418 -1434 -418 -2050 0 -53 36 -98 65 -100 65 -2 0
-24 -28 -49 -62z"/>
</g>
</svg>
